<svg xmlns="http://www.w3.org/2000/svg" width="64" height="64" viewBox="0 0 64 64">
  <defs>
    <linearGradient id="g" x1="0" y1="0" x2="1" y2="1">
      <stop offset="0%" stop-color="#3b82f6"/>
      <stop offset="100%" stop-color="#7c3aed"/>
    </linearGradient>
  </defs>
  <rect x="4" y="4" width="56" height="56" rx="14" fill="url(#g)"/>
  <path d="M42 23.5c-2.2-1.8-5.2-2.7-9-2.7-7.3 0-11.9 3.3-11.9 8.2 0 4.6 3.7 6.7 9.5 7.4l2.6.3c3.6.4 5.2 1.2 5.2 2.9 0 2-2.3 3.3-6 3.3-3.1 0-6.1-.9-8.2-2.4l-2.3 4.1c2.6 1.9 6.6 3 10.6 3 7.8 0 12.7-3.5 12.7-8.6 0-4.8-3.9-6.8-9.9-7.5l-2.5-.3c-3.1-.4-4.9-1.2-4.9-2.8 0-1.9 2.1-3.1 5.6-3.1 2.8 0 5.1.7 6.8 1.9l2.7-3.7z" fill="#fff"/>
</svg>

